<?xml version="1.0" encoding="UTF-8"?>
<svg id="Layer_2" data-name="Layer 2" xmlns="http://www.w3.org/2000/svg" viewBox="0 0 675.49 136.62">
  <defs>
    <style>
      .cls-1 {
        font-family: NordicaHairline, Nordica;
        font-size: 51.1px;
      }

      .cls-1, .cls-2 {
        fill: #28311d;
      }
    </style>
  </defs>
  <g id="Layer_1-2" data-name="Layer 1">
    <g>
      <g>
        <path class="cls-2" d="M131.99,52.27c0,6.18-2.59,11.18-7.78,15.03-4.5,3.42-9.98,5.12-16.45,5.12-4.3,0-8.97-1.58-13.99-4.73-.43-.19-.76-.36-1.01-.49-.25-.13-.45-.2-.62-.2-1.31,0-2.02,1.22-2.12,3.65h-1.82v-13.35l1.82-.88c.16,1.97.69,3.77,1.58,5.39s2.12,3.13,3.69,4.51c3.09,2.59,6.62,3.89,10.59,3.89,4.4,0,8.16-1.2,11.28-3.6,1.67-1.28,2.91-2.77,3.72-4.46.81-1.69,1.21-3.6,1.21-5.74,0-5.06-2.82-9.43-8.47-13.11-2.66-1.58-5.31-3.1-7.96-4.58-2.64-1.48-5.33-2.99-8.05-4.53-5.71-4.01-8.57-8.95-8.57-14.83s2.25-10.31,6.75-13.99c4.17-3.58,9.15-5.37,14.93-5.37,1.61,0,3.05.09,4.31.27s2.34.45,3.23.81c1.87.76,4.11,2.22,6.7,4.38.2.2.43.3.69.3.36,0,.66-.33.89-.99.23-.66.38-1.64.44-2.96h1.68v13.2l-1.68.94c0-1.94-.38-3.69-1.13-5.27-.76-1.58-1.87-3.05-3.35-4.43-2.92-2.82-6.27-4.24-10.05-4.24s-7.14,1.28-10.1,3.84c-2.82,2.53-4.24,5.68-4.24,9.46,0,2.33.72,4.55,2.14,6.65,1.43,2.1,3.64,4.12,6.63,6.06,2.69,1.58,5.4,3.15,8.13,4.73,2.73,1.58,5.43,3.14,8.13,4.68,5.91,4.11,8.87,9.05,8.87,14.83Z"/>
        <path class="cls-2" d="M149.53,71.53v-1.72c1.15,0,2.26-.19,3.33-.59,1.07-.39,2.01-.95,2.83-1.67s1.48-1.57,1.97-2.54c.49-.97.74-2.02.74-3.18V10.59c0-1.12-.25-2.16-.74-3.13-.49-.97-1.15-1.81-1.97-2.51s-1.77-1.26-2.83-1.65c-1.07-.39-2.18-.59-3.33-.59V.89h26.55v1.82c-1.15,0-2.26.2-3.32.59-1.07.39-2.01.94-2.83,1.65-.82.71-1.48,1.54-1.97,2.51-.49.97-.74,2.01-.74,3.13v51.24c0,1.15.25,2.21.74,3.18.49.97,1.15,1.81,1.97,2.54.82.72,1.77,1.28,2.83,1.67,1.07.4,2.17.59,3.32.59v1.72h-26.55Z"/>
        <path class="cls-2" d="M237.42,52.27c0,6.18-2.59,11.18-7.78,15.03-4.5,3.42-9.98,5.12-16.45,5.12-4.3,0-8.97-1.58-13.99-4.73-.43-.19-.76-.36-1.01-.49-.25-.13-.45-.2-.62-.2-1.31,0-2.02,1.22-2.12,3.65h-1.82v-13.35l1.82-.88c.16,1.97.69,3.77,1.58,5.39s2.12,3.13,3.69,4.51c3.09,2.59,6.62,3.89,10.59,3.89,4.4,0,8.16-1.2,11.28-3.6,1.67-1.28,2.91-2.77,3.72-4.46.81-1.69,1.21-3.6,1.21-5.74,0-5.06-2.82-9.43-8.47-13.11-2.66-1.58-5.31-3.1-7.96-4.58-2.64-1.48-5.33-2.99-8.05-4.53-5.71-4.01-8.57-8.95-8.57-14.83s2.25-10.31,6.75-13.99c4.17-3.58,9.15-5.37,14.93-5.37,1.61,0,3.05.09,4.31.27s2.34.45,3.23.81c1.87.76,4.11,2.22,6.7,4.38.2.2.43.3.69.3.36,0,.66-.33.89-.99.23-.66.38-1.64.44-2.96h1.68v13.2l-1.68.94c0-1.94-.38-3.69-1.13-5.27-.76-1.58-1.87-3.05-3.35-4.43-2.92-2.82-6.27-4.24-10.05-4.24s-7.14,1.28-10.1,3.84c-2.82,2.53-4.24,5.68-4.24,9.46,0,2.33.72,4.55,2.14,6.65,1.43,2.1,3.64,4.12,6.63,6.06,2.69,1.58,5.4,3.15,8.13,4.73,2.73,1.58,5.43,3.14,8.13,4.68,5.91,4.11,8.87,9.05,8.87,14.83Z"/>
        <path class="cls-2" d="M396.19,71.53v-1.72c2.04,0,3.55-.35,4.56-1.06,1-.7,1.5-1.83,1.5-3.37,0-.49-.01-.92-.05-1.28-.03-.36-.08-.64-.15-.84l-14.04-38.52-18.32,16.55v20.54c0,1.15.25,2.21.74,3.18.49.97,1.15,1.81,1.97,2.54.82.72,1.76,1.28,2.83,1.67,1.07.4,2.17.59,3.32.59v1.72h-26.55v-1.72c1.15,0,2.26-.19,3.33-.59,1.07-.39,2.01-.95,2.83-1.67s1.48-1.57,1.97-2.54c.49-.97.74-2.02.74-3.18V10.59c0-1.12-.25-2.16-.74-3.13-.49-.97-1.15-1.81-1.97-2.51s-1.77-1.26-2.83-1.65c-1.07-.39-2.18-.59-3.33-.59V.89h26.55v1.82c-1.15,0-2.26.2-3.32.59-1.07.39-2.01.94-2.83,1.65-.82.71-1.48,1.54-1.97,2.51s-.74,2.01-.74,3.13v28.23l34.78-31.13c.33-.3.49-.94.49-1.92,0-2.04-1.9-3.06-5.71-3.06V.89h19.07v1.82c-1.94,0-3.68.24-5.22.72-1.54.48-2.84,1.22-3.89,2.24l-14.19,12.81,15.91,43.35c.52,1.48,1.13,2.72,1.82,3.72s1.5,1.82,2.44,2.46c.94.64,2.02,1.1,3.25,1.38,1.23.28,2.63.42,4.21.42v1.72h-26.46Z"/>
        <path class="cls-2" d="M438.07,71.53v-1.72c1.15,0,2.26-.19,3.32-.59,1.07-.39,2.01-.95,2.83-1.67.82-.72,1.48-1.57,1.97-2.54.49-.97.74-2.02.74-3.18V10.59c0-1.12-.25-2.16-.74-3.13-.49-.97-1.15-1.81-1.97-2.51-.82-.71-1.76-1.26-2.83-1.65-1.07-.39-2.17-.59-3.32-.59V.89h26.55v1.82c-1.15,0-2.26.2-3.32.59-1.07.39-2.01.94-2.83,1.65s-1.48,1.54-1.97,2.51c-.49.97-.74,2.01-.74,3.13v51.24c0,1.15.25,2.21.74,3.18.49.97,1.15,1.81,1.97,2.54s1.77,1.28,2.83,1.67c1.06.4,2.17.59,3.32.59v1.72h-26.55Z"/>
        <path class="cls-2" d="M525.96,52.27c0,6.18-2.59,11.18-7.78,15.03-4.5,3.42-9.98,5.12-16.45,5.12-4.3,0-8.97-1.58-13.99-4.73-.43-.19-.76-.36-1.01-.49-.25-.13-.45-.2-.62-.2-1.31,0-2.02,1.22-2.12,3.65h-1.82v-13.35l1.82-.88c.16,1.97.69,3.77,1.58,5.39.88,1.63,2.12,3.13,3.69,4.51,3.09,2.59,6.62,3.89,10.59,3.89,4.4,0,8.16-1.2,11.28-3.6,1.67-1.28,2.91-2.77,3.72-4.46.81-1.69,1.21-3.6,1.21-5.74,0-5.06-2.83-9.43-8.47-13.11-2.66-1.58-5.31-3.1-7.96-4.58-2.64-1.48-5.33-2.99-8.05-4.53-5.71-4.01-8.57-8.95-8.57-14.83s2.25-10.31,6.75-13.99c4.17-3.58,9.14-5.37,14.92-5.37,1.61,0,3.05.09,4.31.27,1.27.18,2.34.45,3.23.81,1.87.76,4.1,2.22,6.7,4.38.2.2.43.3.69.3.36,0,.66-.33.89-.99.23-.66.37-1.64.44-2.96h1.68v13.2l-1.68.94c0-1.94-.38-3.69-1.13-5.27-.76-1.58-1.87-3.05-3.35-4.43-2.92-2.82-6.27-4.24-10.05-4.24s-7.14,1.28-10.1,3.84c-2.83,2.53-4.24,5.68-4.24,9.46,0,2.33.72,4.55,2.14,6.65s3.64,4.12,6.63,6.06c2.69,1.58,5.4,3.15,8.13,4.73s5.44,3.14,8.13,4.68c5.91,4.11,8.86,9.05,8.86,14.83Z"/>
        <path class="cls-2" d="M587.29,52.27c0,6.18-2.59,11.18-7.78,15.03-4.5,3.42-9.98,5.12-16.45,5.12-4.3,0-8.97-1.58-13.99-4.73-.43-.19-.76-.36-1.01-.49-.25-.13-.45-.2-.62-.2-1.31,0-2.02,1.22-2.12,3.65h-1.82v-13.35l1.82-.88c.16,1.97.69,3.77,1.58,5.39.88,1.63,2.12,3.13,3.69,4.51,3.09,2.59,6.62,3.89,10.59,3.89,4.4,0,8.16-1.2,11.28-3.6,1.67-1.28,2.91-2.77,3.72-4.46.81-1.69,1.21-3.6,1.21-5.74,0-5.06-2.83-9.43-8.47-13.11-2.66-1.58-5.31-3.1-7.96-4.58-2.64-1.48-5.33-2.99-8.05-4.53-5.71-4.01-8.57-8.95-8.57-14.83s2.25-10.31,6.75-13.99c4.17-3.58,9.14-5.37,14.92-5.37,1.61,0,3.05.09,4.31.27,1.27.18,2.34.45,3.23.81,1.87.76,4.1,2.22,6.7,4.38.2.2.43.3.69.3.36,0,.66-.33.89-.99.23-.66.37-1.64.44-2.96h1.68v13.2l-1.68.94c0-1.94-.38-3.69-1.13-5.27-.76-1.58-1.87-3.05-3.35-4.43-2.92-2.82-6.27-4.24-10.05-4.24s-7.14,1.28-10.1,3.84c-2.83,2.53-4.24,5.68-4.24,9.46,0,2.33.72,4.55,2.14,6.65s3.64,4.12,6.63,6.06c2.69,1.58,5.4,3.15,8.13,4.73s5.44,3.14,8.13,4.68c5.91,4.11,8.86,9.05,8.86,14.83Z"/>
      </g>
      <path class="cls-2" d="M296.78,0c-3.55,31.47-6.43,34.34-37.89,37.89,31.46,3.55,34.34,6.43,37.89,37.89,3.55-31.46,6.43-34.34,37.89-37.89C303.21,34.34,300.33,31.47,296.78,0Z"/>
    </g>
    <text class="cls-1" transform="translate(0 124.15)"><tspan x="0" y="0">custom | charms | essentials</tspan></text>
  </g>
</svg>